<svg width="32" height="32" viewBox="0 0 32 32" fill="none" xmlns="http://www.w3.org/2000/svg">
  <circle cx="16" cy="16" r="14.5" fill="#000000" />
  <circle cx="16" cy="16" r="13.5" fill="none" stroke="#ffffff" stroke-width="2" />
  <g transform="translate(6, 6)" stroke="#ffffff" stroke-linecap="round">
    <circle cx="10" cy="10" r="2.6" fill="#ffffff" stroke-width="0.8" />
    <path d="M10 1.2 L10 7.2 M10 12.8 L10 18.8 M1.2 10 L7.2 10 M12.8 10 L18.8 10" stroke-width="2.4" />
    <circle cx="4.8" cy="4.8" r="1.6" fill="#ffffff" stroke-width="0" />
    <circle cx="15.2" cy="4.8" r="1.6" fill="#ffffff" stroke-width="0" />
    <circle cx="4.8" cy="15.2" r="1.6" fill="#ffffff" stroke-width="0" />
    <circle cx="15.2" cy="15.2" r="1.6" fill="#ffffff" stroke-width="0" />
    <path d="M8 8 L4.8 4.8 M12 8 L15.2 4.8 M8 12 L4.8 15.2 M12 12 L15.2 15.2" stroke-width="2.1" />
    <path d="M10 4 L10 5.6 M10 14.4 L10 16 M4 10 L5.6 10 M14.4 10 L16 10" stroke-width="1.3" />
  </g>
</svg>
