<svg width="40" height="40" viewBox="0 0 40 40" fill="none" xmlns="http://www.w3.org/2000/svg">
  <circle cx="20" cy="20" r="18" fill="#000000" />
  <circle cx="20" cy="20" r="17" fill="none" stroke="#ffffff" stroke-width="2.25" />
  <g transform="translate(8, 8)" stroke="#ffffff" stroke-linecap="round">
    <circle cx="12" cy="12" r="3.5" fill="#ffffff" stroke-width="1" />
    <path d="M12 1.5 L12 8.25 M12 15.75 L12 22.5 M1.5 12 L8.25 12 M15.75 12 L22.5 12" stroke-width="3" />
    <circle cx="5.5" cy="5.5" r="2" fill="#ffffff" stroke-width="0" />
    <circle cx="18.5" cy="5.5" r="2" fill="#ffffff" stroke-width="0" />
    <circle cx="5.5" cy="18.5" r="2" fill="#ffffff" stroke-width="0" />
    <circle cx="18.5" cy="18.5" r="2" fill="#ffffff" stroke-width="0" />
    <path d="M9.5 9.5 L5.5 5.5 M14.5 9.5 L18.5 5.5 M9.5 14.5 L5.5 18.5 M14.5 14.5 L18.5 18.5" stroke-width="2.5" />
    <path d="M12 5 L12 6.75 M12 17.25 L12 19 M5 12 L6.75 12 M17.25 12 L19 12" stroke-width="1.5" />
  </g>
</svg>
