<svg width="40" height="40" viewBox="0 0 40 40" fill="none" xmlns="http://www.w3.org/2000/svg">
  <!-- Outer white ring -->
  <circle cx="20" cy="20" r="18" fill="none" stroke="#ffffff" stroke-width="2" opacity="0.9"/>

  <!-- Logo mark - Enhanced data/AI symbol -->
  <g transform="translate(8, 8)">
    <!-- Central node -->
    <circle cx="12" cy="12" r="3.5" fill="url(#gradientMark)" stroke="url(#strokeGradientMark)" stroke-width="0.8"/>

    <!-- Main connection lines -->
    <path d="M12 2 L12 8.5 M12 15.5 L12 22 M2 12 L8.5 12 M15.5 12 L22 12"
          stroke="url(#gradientMark)"
          stroke-width="2.5"
          stroke-linecap="round"/>

    <!-- Corner nodes -->
    <circle cx="6" cy="6" r="2" fill="url(#gradientMark)" opacity="0.9"/>
    <circle cx="18" cy="6" r="2" fill="url(#gradientMark)" opacity="0.9"/>
    <circle cx="6" cy="18" r="2" fill="url(#gradientMark)" opacity="0.9"/>
    <circle cx="18" cy="18" r="2" fill="url(#gradientMark)" opacity="0.9"/>

    <!-- Connecting lines to corners -->
    <path d="M9.5 9.5 L6 6 M14.5 9.5 L18 6 M9.5 14.5 L6 18 M14.5 14.5 L18 18"
          stroke="url(#gradientMark)"
          stroke-width="2"
          stroke-linecap="round"
          opacity="0.8"/>

    <!-- Additional detail lines -->
    <path d="M12 5 L12 6.5 M12 17.5 L12 19 M5 12 L6.5 12 M17.5 12 L19 12"
          stroke="url(#accentGradientMark)"
          stroke-width="1"
          stroke-linecap="round"
          opacity="0.6"/>
  </g>

  <!-- Gradient definitions -->
  <defs>
    <linearGradient id="gradientMark" x1="0%" y1="0%" x2="100%" y2="100%">
      <stop offset="0%" style="stop-color:#ffffff;stop-opacity:1" />
      <stop offset="50%" style="stop-color:#f0f0f0;stop-opacity:0.95" />
      <stop offset="100%" style="stop-color:#e0e0e0;stop-opacity:0.9" />
    </linearGradient>
    <linearGradient id="strokeGradientMark" x1="0%" y1="0%" x2="100%" y2="100%">
      <stop offset="0%" style="stop-color:#ffffff;stop-opacity:0.8" />
      <stop offset="100%" style="stop-color:#cccccc;stop-opacity:0.6" />
    </linearGradient>
    <linearGradient id="accentGradientMark" x1="0%" y1="0%" x2="100%" y2="100%">
      <stop offset="0%" style="stop-color:#ffffff;stop-opacity:0.9" />
      <stop offset="100%" style="stop-color:#dddddd;stop-opacity:0.7" />
    </linearGradient>
  </defs>
</svg>
