<svg width="300" height="75" viewBox="0 0 300 75" fill="none" xmlns="http://www.w3.org/2000/svg">
  <!-- Original DataGen Mark -->
  <g transform="translate(0, 17.5)">
    <!-- Outer white ring - positioned with stroke-width accounted for -->
    <circle cx="19" cy="20" r="18" fill="none" stroke="#ffffff" stroke-width="2" opacity="0.9"/>

    <!-- Logo mark - Enhanced data/AI symbol -->
    <g transform="translate(7, 8)">
      <!-- Central node -->
      <circle cx="12" cy="12" r="3.5" fill="#ffffff" stroke="#ffffff" stroke-width="1"/>

      <!-- Main connection lines - made thicker and solid white -->
      <path d="M12 2 L12 8.5 M12 15.5 L12 22 M2 12 L8.5 12 M15.5 12 L22 12"
            stroke="#ffffff"
            stroke-width="3"
            stroke-linecap="round"/>

      <!-- Corner nodes - solid white -->
      <circle cx="6" cy="6" r="2" fill="#ffffff"/>
      <circle cx="18" cy="6" r="2" fill="#ffffff"/>
      <circle cx="6" cy="18" r="2" fill="#ffffff"/>
      <circle cx="18" cy="18" r="2" fill="#ffffff"/>

      <!-- Connecting lines to corners - thicker and solid white -->
      <path d="M9.5 9.5 L6 6 M14.5 9.5 L18 6 M9.5 14.5 L6 18 M14.5 14.5 L18 18"
            stroke="#ffffff"
            stroke-width="2.5"
            stroke-linecap="round"/>

      <!-- Additional detail lines - solid white -->
      <path d="M12 5 L12 6.5 M12 17.5 L12 19 M5 12 L6.5 12 M17.5 12 L19 12"
            stroke="#ffffff"
            stroke-width="1.5"
            stroke-linecap="round"/>
    </g>
  </g>

  <!-- Main text "DataGen" -->
  <text x="49" y="42"
        font-family="system-ui, -apple-system, BlinkMacSystemFont, 'Segoe UI', sans-serif"
        font-size="28"
        font-weight="800"
        fill="#ffffff"
        letter-spacing="-0.5px">DataGen</text>

  <!-- Subtext -->
  <text x="49" y="58"
        font-family="system-ui, -apple-system, BlinkMacSystemFont, 'Segoe UI', sans-serif"
        font-size="13"
        font-weight="600"
        fill="#ffffff"
        letter-spacing="0.2px">AI and Synthetic Data Solutions</text>
</svg>
