<svg width="32" height="32" viewBox="0 0 32 32" fill="none" xmlns="http://www.w3.org/2000/svg">
  <!-- Completely filled black background -->
  <rect width="32" height="32" fill="#000000"/>

  <!-- Outer white ring -->
  <circle cx="16" cy="16" r="13" fill="none" stroke="#ffffff" stroke-width="1.5" opacity="0.9"/>

  <!-- Logo mark - Enhanced data/AI symbol -->
  <g transform="translate(6, 6)">
    <!-- Central node -->
    <circle cx="10" cy="10" r="2.5" fill="#ffffff" stroke="#ffffff" stroke-width="0.8"/>

    <!-- Main connection lines -->
    <path d="M10 2 L10 7.5 M10 12.5 L10 18 M2 10 L7.5 10 M12.5 10 L18 10"
          stroke="#ffffff"
          stroke-width="2"
          stroke-linecap="round"/>

    <!-- Corner nodes -->
    <circle cx="5" cy="5" r="1.5" fill="#ffffff"/>
    <circle cx="15" cy="5" r="1.5" fill="#ffffff"/>
    <circle cx="5" cy="15" r="1.5" fill="#ffffff"/>
    <circle cx="15" cy="15" r="1.5" fill="#ffffff"/>

    <!-- Connecting lines to corners -->
    <path d="M8 8 L5 5 M12 8 L15 5 M8 12 L5 15 M12 12 L15 15"
          stroke="#ffffff"
          stroke-width="1.8"
          stroke-linecap="round"/>

    <!-- Additional detail lines -->
    <path d="M10 4 L10 5.5 M10 14.5 L10 16 M4 10 L5.5 10 M14.5 10 L16 10"
          stroke="#ffffff"
          stroke-width="1.2"
          stroke-linecap="round"/>
  </g>
</svg>

